{"buffers":[{"uri":"TVC7 v22.bin","byteLength":256464}],"asset":{"version":"2.0","generator":"gltfpack 0.16"},"bufferViews":[{"buffer":0,"byteOffset":0,"byteLength":100584,"byteStride":12,"target":34962},{"buffer":0,"byteOffset":100584,"byteLength":100584,"byteStride":12,"target":34962},{"buffer":0,"byteOffset":201168,"byteLength":55296,"target":34963}],"accessors":[{"bufferView":0,"byteOffset":0,"componentType":5126,"count":248,"type":"VEC3","min":[-0.0120000001,-0.0120000001,0],"max":[0.0120000001,0.0120000001,0.115000002]},{"bufferView":1,"byteOffset":0,"componentType":5126,"count":248,"type":"VEC3"},{"bufferView":2,"byteOffset":0,"componentType":5123,"count":744,"type":"SCALAR"},{"bufferView":0,"byteOffset":2976,"componentType":5126,"count":1060,"type":"VEC3","min":[-0.017905714,-0.0240000002,0.020299999],"max":[0.0176947378,0.0305000003,0.108999997]},{"bufferView":1,"byteOffset":2976,"componentType":5126,"count":1060,"type":"VEC3"},{"bufferView":2,"byteOffset":1488,"componentType":5123,"count":3120,"type":"SCALAR"},{"bufferView":0,"byteOffset":15696,"componentType":5126,"count":1472,"type":"VEC3","min":[-0.0384999998,-0.0273513719,0.0610000007],"max":[0.0384999998,0.0273520499,0.100500003]},{"bufferView":1,"byteOffset":15696,"componentType":5126,"count":1472,"type":"VEC3"},{"bufferView":2,"byteOffset":7728,"componentType":5123,"count":4380,"type":"SCALAR"},{"bufferView":0,"byteOffset":33360,"componentType":5126,"count":1495,"type":"VEC3","min":[-0.0134999994,0.0199999996,0.0206000004],"max":[0.0149999997,0.0324999988,0.0526500009]},{"bufferView":1,"byteOffset":33360,"componentType":5126,"count":1495,"type":"VEC3"},{"bufferView":2,"byteOffset":16488,"componentType":5123,"count":6396,"type":"SCALAR"},{"bufferView":0,"byteOffset":51300,"componentType":5126,"count":1306,"type":"VEC3","min":[-0.0177999996,0.0237500854,0.0290000867],"max":[-0.0135000004,0.028749913,0.0339999124]},{"bufferView":1,"byteOffset":51300,"componentType":5126,"count":1306,"type":"VEC3"},{"bufferView":2,"byteOffset":29280,"componentType":5123,"count":3306,"type":"SCALAR"},{"bufferView":0,"byteOffset":66972,"componentType":5126,"count":1495,"type":"VEC3","min":[0.0179999992,-0.00850000046,0.0683500022],"max":[0.0305000003,0.0199999996,0.100400001]},{"bufferView":1,"byteOffset":66972,"componentType":5126,"count":1495,"type":"VEC3"},{"bufferView":2,"byteOffset":35892,"componentType":5123,"count":6396,"type":"SCALAR"},{"bufferView":0,"byteOffset":84912,"componentType":5126,"count":1306,"type":"VEC3","min":[0.0217500869,0.0199999996,0.0870000869],"max":[0.0267499145,0.0242999997,0.0919999108]},{"bufferView":1,"byteOffset":84912,"componentType":5126,"count":1306,"type":"VEC3"},{"bufferView":2,"byteOffset":48684,"componentType":5123,"count":3306,"type":"SCALAR"}],"materials":[{"pbrMetallicRoughness":{"baseColorFactor":[0.960784316,0.960784316,0.964705884,1],"metallicFactor":0,"roughnessFactor":0},"doubleSided":true},{"pbrMetallicRoughness":{"baseColorFactor":[0.854901969,0.349019617,0.349019617,1],"metallicFactor":0,"roughnessFactor":0},"doubleSided":true},{"pbrMetallicRoughness":{"baseColorFactor":[0.349019617,0.58431375,0.854901969,1],"metallicFactor":0,"roughnessFactor":0},"doubleSided":true},{"pbrMetallicRoughness":{"baseColorFactor":[0.486274511,0.486274511,0.486274511,1],"metallicFactor":0,"roughnessFactor":0},"doubleSided":true},{"pbrMetallicRoughness":{"baseColorFactor":[0.850980401,0.850980401,0.850980401,1],"metallicFactor":0,"roughnessFactor":0},"doubleSided":true}],"meshes":[{"primitives":[{"attributes":{"POSITION":0,"NORMAL":1},"mode":4,"indices":2,"material":0}]},{"primitives":[{"attributes":{"POSITION":3,"NORMAL":4},"mode":4,"indices":5,"material":1}]},{"primitives":[{"attributes":{"POSITION":6,"NORMAL":7},"mode":4,"indices":8,"material":2}]},{"primitives":[{"attributes":{"POSITION":9,"NORMAL":10},"mode":4,"indices":11,"material":3}]},{"primitives":[{"attributes":{"POSITION":12,"NORMAL":13},"mode":4,"indices":14,"material":4}]},{"primitives":[{"attributes":{"POSITION":15,"NORMAL":16},"mode":4,"indices":17,"material":3}]},{"primitives":[{"attributes":{"POSITION":18,"NORMAL":19},"mode":4,"indices":20,"material":4}]}],"nodes":[{"mesh":0},{"mesh":1},{"mesh":2},{"mesh":3},{"mesh":4},{"mesh":5},{"mesh":6},{"name":"TVC7 v22","children":[8,9,10,11,15]},{"name":"pipe","children":[0]},{"name":"y","children":[1]},{"name":"x","children":[2]},{"name":"MG90 v1","children":[12,13,14]},{"name":"MG90servo_body","children":[3]},{"name":"MG90servo_shaft","children":[4]},{"name":"MG90servo_gear"},{"name":"MG90 v1","children":[16,17,18]},{"name":"MG90servo_body","children":[5]},{"name":"MG90servo_shaft","children":[6]},{"name":"MG90servo_gear"}],"scenes":[{"name":"TVC7 v22","nodes":[7]}]}